<?xml version="1.0" encoding="utf-8"?>
<!-- Generator: Adobe Illustrator 16.0.0, SVG Export Plug-In . SVG Version: 6.00 Build 0)  -->
<!DOCTYPE svg PUBLIC "-//W3C//DTD SVG 1.1//EN" "http://www.w3.org/Graphics/SVG/1.1/DTD/svg11.dtd">
<svg version="1.1" id="Vrstva_1" xmlns="http://www.w3.org/2000/svg" xmlns:xlink="http://www.w3.org/1999/xlink" x="0px" y="0px"
	 width="1278px" height="1118px" viewBox="0 0 1278 1118" enable-background="new 0 0 1278 1118" xml:space="preserve">
<g>
	<path fill-rule="evenodd" clip-rule="evenodd" fill="current" d="M434.098,472.363c9.785-6.199,18.194-11.488,26.566-16.835
		c31.541-20.144,63.083-40.286,94.599-60.469c36.008-23.06,71.967-46.196,107.99-69.23c15.557-9.948,30.954-20.183,46.903-29.466
		c20.973-12.208,40.243-12.048,59.133,2.382c8.575,6.55,13.928,15.767,15.696,26.415c1.327,7.99,1.757,16.203,1.793,24.319
		c0.177,39.817,0.088,79.637,0.105,119.455c0,0.485,0.169,0.97,0.431,2.381c3.445-2.045,6.643-3.83,9.726-5.792
		c48.975-31.155,97.964-62.286,146.889-93.521c39.811-25.417,79.22-51.478,119.43-76.244c21.215-13.066,42.077-11.095,60.015,4.792
		c10.73,9.501,15.684,23.044,15.717,37.628c0.109,49.153-0.077,98.307-0.073,147.461c0.005,63.985,0.124,127.97,0.12,191.955
		c-0.005,80.814-0.087,161.629-0.123,242.444c-0.004,6.831-0.043,13.666,0.155,20.493c0.864,29.694-22.628,52.212-51.747,51.873
		c-45.483-0.528-90.979-0.137-136.469-0.137c-83.815-0.001-167.63,0.01-251.445-0.006c-107.477-0.021-214.954-0.07-322.43-0.092
		c-70.651-0.015-141.304-0.224-211.953,0.157c-16.814,0.091-29.911-6.1-40.752-18.329c-6.083-6.861-9.74-15.154-9.971-23.98
		c-0.749-28.636-0.695-57.295-0.839-85.946c-0.106-21.321-0.045-42.644-0.049-63.966c-0.004-21.327,0.017-42.654,0.003-63.981
		c-0.014-21.819-0.096-43.638-0.074-65.457c0.02-21.158,0.176-42.317,0.193-63.476c0.017-21.324-0.104-42.648-0.089-63.974
		c0.017-21.654,0.163-43.308,0.187-64.961c0.022-20.496-0.06-40.99-0.062-61.485c-0.001-22.487,0.087-44.975,0.043-67.461
		c-0.045-22.657-0.309-45.314-0.29-67.971c0.029-35.823,0.243-71.646,0.313-107.468c0.018-8.826-0.498-17.659-0.286-26.478
		c0.651-27.118,12.845-43.811,38.802-51.234c4.38-1.253,9.25-1.081,13.895-1.083c60.817-0.023,121.635,0.05,182.453,0.076
		c11.83,0.005,23.664-0.313,35.489-0.095c29.451,0.544,49.688,19.801,50.015,49.582c0.532,48.48,0.02,96.972,0.002,145.458
		c-0.009,24.161,0.153,48.322,0.147,72.482c-0.009,34.16-0.103,68.318-0.16,102.478
		C434.095,466.987,434.098,468.918,434.098,472.363z M690.104,423.224c-2.655,1.481-4.095,2.189-5.439,3.048
		c-37.711,24.098-75.385,48.256-113.124,72.311c-39.827,25.387-79.671,50.747-119.598,75.976
		c-16.005,10.114-31.797,20.713-48.528,29.48c-13.562,7.107-28.235,4.381-41.028-2.981c-16.678-9.598-23.939-25.329-23.976-44.304
		c-0.131-67.654-0.156-135.307-0.161-202.96c-0.004-52.656,0.054-105.313,0.188-157.968c0.01-3.722-0.705-5.128-4.945-5.106
		c-39.157,0.2-78.316,0.231-117.473-0.01c-5.171-0.032-6.376,1.385-6.354,6.382c0.249,54.984,0.327,109.969,0.323,164.954
		c-0.004,62.981-0.166,125.963-0.207,188.946c-0.038,59.153-0.029,118.306,0.002,177.459c0.012,21.994,0.186,43.988,0.211,65.983
		c0.038,32.49,0.005,64.981,0.016,97.473c0,1.283,0.134,2.566,0.223,4.175c277.75,0,555.196,0,832.201,0
		c0-157.721,0-315.001,0-472.89c-12.149,7.543-23.64,14.528-34.978,21.751c-18.792,11.971-37.463,24.13-56.225,36.147
		c-23.668,15.161-47.381,30.252-71.065,45.388c-34.049,21.762-68.041,43.613-102.165,65.255
		c-10.305,6.535-20.125,13.972-33.12,15.196c-12.472,1.175-23.543-1.562-33.875-8.415c-15.666-10.39-20.56-26.209-20.755-43.548
		c-0.469-41.488-0.15-82.984-0.15-124.477C690.104,428.533,690.104,426.576,690.104,423.224z"/>
	<path fill-rule="evenodd" clip-rule="evenodd" fill="current" d="M883.095,672.061c12.488,0,24.977-0.025,37.464,0.007
		c16.457,0.042,25.865,8.87,26.078,25.459c0.329,25.638,0.314,51.286,0.059,76.927c-0.152,15.293-10.692,25.57-25.942,25.653
		c-25.477,0.139-50.954,0.111-76.429-0.072c-16.15-0.115-25.585-9.797-25.696-26.008c-0.168-24.808-0.28-49.615-0.342-74.423
		c-0.042-17.09,10.735-28.541,27.851-27.88c12.302,0.476,24.638,0.093,36.957,0.093
		C883.095,671.897,883.095,671.979,883.095,672.061z"/>
	<path fill-rule="evenodd" clip-rule="evenodd" fill="current" d="M434.269,735.692c0,12.819,0.167,25.641-0.044,38.457
		c-0.25,15.166-9.577,25.641-25.044,25.872c-26.133,0.392-52.28,0.292-78.414-0.044c-14.862-0.191-24.484-10.245-24.597-25.14
		c-0.192-25.639-0.25-51.28-0.107-76.918c0.09-15.964,10.443-26.067,26.448-26.077c25.637-0.015,51.275,0.074,76.913,0.247
		c15.324,0.104,24.653,9.72,24.671,25.143c0.014,12.82,0.003,25.64,0.003,38.46C434.154,735.692,434.212,735.692,434.269,735.692z"
		/>
	<path fill-rule="evenodd" clip-rule="evenodd" fill="current" d="M562.891,736.131c0-13.331,0.665-26.704-0.191-39.979
		c-0.817-12.675,12.369-24.479,23.399-24.31c12.494,0.19,24.993-0.084,37.49-0.056c13.659,0.031,27.351,0.801,40.97,0.107
		c15.104-0.77,26.115,12.527,25.656,25.526c-0.906,25.627-0.798,51.327-0.027,76.965c0.385,12.763-9.965,25.524-24.286,25.631
		c-26.658,0.198-53.319,0.102-79.979-0.085c-13.53-0.095-24.454-12.407-23.15-24.822c0.675-6.429,0.118-12.985,0.118-19.483
		C562.891,749.127,562.891,742.629,562.891,736.131z"/>
</g>
</svg>
