<?xml version="1.0" encoding="utf-8"?>
<!-- Generator: Adobe Illustrator 16.0.0, SVG Export Plug-In . SVG Version: 6.00 Build 0)  -->
<!DOCTYPE svg PUBLIC "-//W3C//DTD SVG 1.1//EN" "http://www.w3.org/Graphics/SVG/1.1/DTD/svg11.dtd">
<svg version="1.1" id="Vrstva_1" xmlns="http://www.w3.org/2000/svg" xmlns:xlink="http://www.w3.org/1999/xlink" x="0px" y="0px"
	 width="1440.145px" fill="current" stroke="current" height="681.068px" viewBox="0 0 1440.145 681.068" enable-background="new 0 0 1440.145 681.068"
	 xml:space="preserve">
<g>
	<path d="M594.885,637V41.411h104.551V637H594.885z"/>
	<g>
		<rect x="35.683" y="509.588" width="110.551" height="127.412"/>
		<path d="M449.93,88.056c-36.256-31.095-89.195-46.645-158.82-46.645H35.683v383.752h110.551h64.383h71.071
			c71.195,0,126.096-16.971,164.709-50.924c38.607-33.945,57.913-82.964,57.913-147.063
			C504.31,165.528,486.181,119.157,449.93,88.056z M353.538,298.671c-18.589,15.348-46.594,23.018-84.023,23.018H146.233V144.885
			h138.594c33.239,0,57.65,7.065,73.227,21.184c15.57,14.124,23.361,35.989,23.361,65.589
			C381.415,260.988,372.121,283.332,353.538,298.671z"/>
	</g>
	<g>
		<path d="M1049.854,637h102.226L972.506,41.411H815.95V637h99.624v-277.02c0-31.774-2.49-95.187-7.46-190.245h3.534L1049.854,637z"
			/>
		<path d="M1254.81,41.411l-99.114,313.271l46.24,154.467l107.45-338.599h3.534c-3.142,74.958-4.908,121.133-5.301,138.51
			c-0.393,17.383-0.589,32.729-0.589,46.032V637h102.306V41.411H1254.81z"/>
	</g>
</g>
</svg>
